<?xml version="1.0" encoding="utf-8"?>
<!-- Generator: Adobe Illustrator 16.0.0, SVG Export Plug-In . SVG Version: 6.00 Build 0)  -->
<!DOCTYPE svg PUBLIC "-//W3C//DTD SVG 1.1//EN" "http://www.w3.org/Graphics/SVG/1.1/DTD/svg11.dtd">
<svg version="1.1" id="Layer_2_copy" xmlns="http://www.w3.org/2000/svg" xmlns:xlink="http://www.w3.org/1999/xlink" x="0px"
	 y="0px" width="89.166px" height="92.031px" viewBox="0 0 89.166 92.031" enable-background="new 0 0 89.166 92.031"
	 xml:space="preserve">
<g>
	<g>
		<path fill="none" stroke="#000000" stroke-miterlimit="10" d="M88.25,57.625"/>
	</g>
</g>
<g>
	<g>
		<path fill="none" stroke="#000000" stroke-miterlimit="10" d="M44.625,43.625"/>
	</g>
</g>
<g>
	<g>
		<path fill="none" stroke="#000000" stroke-miterlimit="10" d="M88.25,35.625"/>
	</g>
</g>
<g>
	<g>
		<path fill="none" stroke="#000000" stroke-miterlimit="10" d="M44.625,21.625"/>
	</g>
</g>
<g>
	<g>
		<path fill="none" stroke="#000000" stroke-miterlimit="10" d="M87.777,74.934"/>
	</g>
</g>
<g>
	<g>
		<path fill="none" stroke="#000000" stroke-miterlimit="10" d="M71.105,65.873"/>
	</g>
</g>
<g>
	<g>
		<path fill="none" stroke="#000000" stroke-miterlimit="10" d="M32.045,63.59"/>
	</g>
</g>
<g>
	<g>
		<path fill="none" stroke="#000000" stroke-miterlimit="10" d="M29.509,63.861"/>
	</g>
</g>
<g>
	<g>
		<path fill="none" stroke="#000000" stroke-miterlimit="10" d="M23.008,64.834"/>
	</g>
</g>
<g>
	<g>
		<path fill="none" stroke="#000000" stroke-miterlimit="10" d="M2.073,73.9"/>
	</g>
</g>
<g>
	<g>
		<path fill="none" stroke="#000000" stroke-miterlimit="10" d="M2.073,73.9"/>
	</g>
</g>
<g>
	<g>
		<g>
			<path fill="#FFFFFF" d="M88.23,36.573L88.188,15.59l0.031,21.127C88.223,36.669,88.228,36.622,88.23,36.573z"/>
			<path fill="#FFFFFF" d="M88.25,36.324l-0.057-18.712l-0.006-2.022l0.042,20.983C88.235,36.49,88.25,36.407,88.25,36.324z"/>
			<path fill="#FFFFFF" d="M88.23,36.573c-0.002,0.048-0.007,0.096-0.011,0.144L88.188,15.59l0.062-0.618h-1.458H1v62.205
				C1,84.812,20.531,91,44.625,91S88.25,84.812,88.25,77.177h0.062L88.23,36.573z"/>
		</g>
	</g>
	<g>
		<g>
			<path fill="none" stroke="#000000" stroke-miterlimit="10" d="M88.23,36.573L88.188,15.59l0.031,21.127
				C88.223,36.669,88.228,36.622,88.23,36.573z"/>
			<path fill="none" stroke="#000000" stroke-miterlimit="10" d="M88.25,36.324l-0.057-18.712l-0.006-2.022l0.042,20.983
				C88.235,36.49,88.25,36.407,88.25,36.324z"/>
			<path fill="none" stroke="#000000" stroke-miterlimit="10" d="M88.23,36.573c-0.002,0.048-0.007,0.096-0.011,0.144L88.188,15.59
				l0.062-0.618h-1.458H1v62.205C1,84.812,20.531,91,44.625,91S88.25,84.812,88.25,77.177h0.062L88.23,36.573z"/>
		</g>
	</g>
</g>
<g id="top_x5F_circle_2_">
	<g>
		<ellipse fill="#FFFFFF" cx="44.625" cy="15" rx="43.625" ry="14"/>
	</g>
	<g>
		<ellipse fill="none" stroke="#000000" stroke-miterlimit="10" cx="44.625" cy="15" rx="43.625" ry="14"/>
	</g>
</g>
<g>
	<g>
		<path fill="none" stroke="#000000" stroke-miterlimit="10" d="M88.25,36.15c0,7.635-19.531,13.823-43.625,13.823
			c-23.259,0-42.266-5.767-43.556-13.034v21.722c1.29,7.269,20.297,13.034,43.556,13.034c24.094,0,43.625-6.188,43.625-13.823"/>
	</g>
</g>
<g>
	<g>
		<path fill="none" stroke="#000000" stroke-miterlimit="10" d="M88.221,31.925l0.092,45.078H88.25
			c0,7.635-19.531,13.823-43.625,13.823S1,84.638,1,77.003v-52.58"/>
	</g>
</g>
<path fill="none" stroke="#000000" stroke-miterlimit="10" d="M-24.458-21.388"/>
</svg>
