<?xml version="1.0" encoding="utf-8"?>
<!-- Generator: Adobe Illustrator 16.0.0, SVG Export Plug-In . SVG Version: 6.00 Build 0)  -->
<!DOCTYPE svg PUBLIC "-//W3C//DTD SVG 1.1//EN" "http://www.w3.org/Graphics/SVG/1.1/DTD/svg11.dtd">
<svg version="1.1" xmlns="http://www.w3.org/2000/svg" xmlns:xlink="http://www.w3.org/1999/xlink" x="0px" y="0px"
	 width="95.125px" height="81.875px" viewBox="287.375 380.125 95.125 81.875"
	 enable-background="new 287.375 380.125 95.125 81.875" xml:space="preserve">
<g id="Capa_1" display="none">
	<g display="inline">
		<path fill="#54FFDE" d="M323.678,460.902c-0.523,0-1.026-0.231-1.361-0.635l-57.04-67.734c-0.534-0.635-0.563-1.555-0.063-2.217
			l21.39-28.52c0.335-0.449,0.866-0.713,1.426-0.713h71.299c0.561,0,1.092,0.264,1.427,0.713l21.39,28.52
			c0.499,0.663,0.471,1.583-0.064,2.217l-57.039,67.734C324.704,460.671,324.202,460.902,323.678,460.902z M268.917,391.322
			l54.761,65.032l54.762-65.032l-20.003-26.673h-69.517L268.917,391.322z"/>
		<path fill="#54FFDE" d="M380.718,393.168H266.639c-0.984,0-1.783-0.795-1.783-1.782s0.799-1.783,1.783-1.783h114.079
			c0.983,0,1.782,0.799,1.782,1.783C382.5,392.37,381.701,393.168,380.718,393.168z"/>
		<path fill="#54FFDE" d="M323.678,460.902c-0.178,0-0.359-0.024-0.534-0.082c-0.941-0.296-1.462-1.297-1.162-2.235l21.39-67.734
			c0.296-0.938,1.305-1.465,2.235-1.162c0.94,0.295,1.461,1.298,1.161,2.235l-21.39,67.735
			C325.14,460.418,324.434,460.902,323.678,460.902z"/>
		<path fill="#54FFDE" d="M323.678,460.902c-0.756,0-1.461-0.484-1.7-1.247l-21.39-67.735c-0.296-0.938,0.225-1.939,1.162-2.235
			c0.941-0.303,1.939,0.225,2.235,1.162l21.39,67.734c0.296,0.938-0.225,1.938-1.162,2.234
			C324.038,460.878,323.856,460.902,323.678,460.902z"/>
		<path fill="#54FFDE" d="M302.288,393.168c-0.656,0-1.283-0.359-1.597-0.983l-14.259-28.52c-0.438-0.88-0.083-1.95,0.798-2.392
			c0.884-0.438,1.95-0.082,2.393,0.799l14.26,28.52c0.442,0.881,0.082,1.95-0.798,2.392
			C302.83,393.107,302.559,393.168,302.288,393.168z"/>
		<path fill="#54FFDE" d="M302.288,393.168c-0.371,0-0.745-0.117-1.066-0.356c-0.788-0.591-0.948-1.707-0.356-2.495l21.39-28.52
			c0.592-0.788,1.708-0.944,2.495-0.356c0.788,0.591,0.948,1.707,0.356,2.495l-21.39,28.52
			C303.365,392.922,302.83,393.168,302.288,393.168z"/>
		<path fill="#54FFDE" d="M345.068,393.168c-0.543,0-1.077-0.246-1.427-0.712l-21.39-28.52c-0.592-0.788-0.432-1.904,0.356-2.495
			c0.784-0.596,1.904-0.436,2.495,0.356l21.391,28.52c0.592,0.788,0.431,1.904-0.356,2.495
			C345.816,393.054,345.442,393.168,345.068,393.168z"/>
		<path fill="#54FFDE" d="M345.068,393.168c-0.268,0-0.539-0.061-0.796-0.188c-0.881-0.442-1.236-1.512-0.798-2.392l14.26-28.52
			c0.442-0.881,1.508-1.237,2.392-0.798c0.881,0.442,1.237,1.511,0.799,2.392l-14.26,28.52
			C346.348,392.809,345.721,393.168,345.068,393.168z"/>
	</g>
</g>
<g id="Layer_3">
	<g>
		<polygon fill="#CCCCCC" stroke="#000000" stroke-miterlimit="10" points="287.735,404.996 305.757,380.74 318.127,404.996 		"/>
	</g>
	<g>
		<polygon fill="#FFFFFF" points="287.735,404.996 305.757,380.74 318.127,404.996 		"/>
	</g>
</g>
<g id="Layer_2">
	<polygon fill="#FFFFFF" stroke="#000000" stroke-miterlimit="10" points="334.737,462.625 351.961,405.25 334.843,380.875 
		318.476,404.648 	"/>
</g>
<g id="Layer_5">
	<g>
		<polygon fill="none" points="305.765,380.74 305.757,380.74 287.735,404.996 318.127,404.996 		"/>
		<polygon fill="none" points="352.23,404.989 364.477,380.737 364.472,380.737 352.227,404.984 335.052,380.738 334.843,380.738 
			318.127,404.996 		"/>
		<polygon fill="none" points="318.127,404.996 335.117,460.994 352.227,404.996 		"/>
		<polygon fill="#FFFFFF" stroke="#000000" stroke-miterlimit="10" points="364.472,380.737 335.052,380.738 352.227,404.984 		"/>
		<polygon fill="#FFFFFF" stroke="#000000" stroke-miterlimit="10" points="352.23,404.989 382.5,404.984 364.478,380.725 
			364.472,380.737 364.477,380.737 		"/>
		<polygon fill="#FFFFFF" stroke="#000000" stroke-miterlimit="10" points="352.227,404.996 352.23,404.989 318.127,404.996 		"/>
		<polygon fill="#FFFFFF" stroke="#000000" stroke-miterlimit="10" points="334.946,380.589 334.843,380.738 335.052,380.738 		"/>
		<polygon fill="#FFFFFF" stroke="#000000" stroke-miterlimit="10" points="287.735,404.996 333.942,460.514 318.127,404.996 		"/>
		<polygon fill="#FFFFFF" stroke="#000000" stroke-miterlimit="10" points="335.649,460.472 382.5,404.996 352.227,404.996 		"/>
		<polygon fill="#FFFFFF" stroke="#000000" stroke-miterlimit="10" points="305.765,380.74 305.758,380.727 287.736,404.984 
			287.735,404.996 305.757,380.74 		"/>
		<polygon fill="#FFFFFF" stroke="#000000" stroke-miterlimit="10" points="334.843,380.738 305.765,380.74 318.127,404.996 		"/>
	</g>
</g>
<g id="Layer_4">
</g>
<g id="Layer_6">
</g>
</svg>
