<?xml version="1.0" encoding="utf-8"?>
<!-- Generator: Adobe Illustrator 16.0.0, SVG Export Plug-In . SVG Version: 6.00 Build 0)  -->
<!DOCTYPE svg PUBLIC "-//W3C//DTD SVG 1.1//EN" "http://www.w3.org/Graphics/SVG/1.1/DTD/svg11.dtd">
<svg version="1.1" id="Layer_8" xmlns="http://www.w3.org/2000/svg" xmlns:xlink="http://www.w3.org/1999/xlink" x="0px" y="0px"
	 width="68.583px" height="67.917px" viewBox="0 0 68.583 67.917" enable-background="new 0 0 68.583 67.917" xml:space="preserve">
<g>
	<path fill="none" stroke="#000000" stroke-miterlimit="10" d="M67.71,19.001c0,2.2-1.8,4-4,4H4.96c-2.2,0-4-1.8-4-4v-14
		c0-2.2,1.8-4,4-4h58.75c2.2,0,4,1.8,4,4V19.001z"/>
</g>
<g>
	<path fill="none" stroke="#000000" stroke-miterlimit="10" d="M67.71,63.001c0,2.2-1.8,4-4,4H4.96c-2.2,0-4-1.8-4-4v-14
		c0-2.2,1.8-4,4-4h58.75c2.2,0,4,1.8,4,4V63.001z"/>
</g>
<circle fill="none" stroke="#000000" stroke-miterlimit="10" cx="12.585" cy="12.001" r="4"/>
<circle fill="none" stroke="#000000" stroke-miterlimit="10" cx="12.585" cy="56.002" r="4"/>
<circle fill="none" stroke="#000000" stroke-miterlimit="10" cx="38.085" cy="9.751" r="0.25"/>
<circle fill="none" stroke="#000000" stroke-miterlimit="10" cx="43.585" cy="9.751" r="0.25"/>
<circle fill="none" stroke="#000000" stroke-miterlimit="10" cx="49.335" cy="9.751" r="0.25"/>
<circle fill="none" stroke="#000000" stroke-miterlimit="10" cx="54.835" cy="9.751" r="0.25"/>
<circle fill="none" stroke="#000000" stroke-miterlimit="10" cx="40.96" cy="15.253" r="0.25"/>
<circle fill="none" stroke="#000000" stroke-miterlimit="10" cx="46.461" cy="15.252" r="0.25"/>
<circle fill="none" stroke="#000000" stroke-miterlimit="10" cx="52.21" cy="15.252" r="0.25"/>
<circle fill="none" stroke="#000000" stroke-miterlimit="10" cx="57.711" cy="15.251" r="0.25"/>
<circle fill="none" stroke="#000000" stroke-miterlimit="10" cx="44.272" cy="30.751" r="0.25"/>
<circle fill="none" stroke="#000000" stroke-miterlimit="10" cx="38.772" cy="30.751" r="0.25"/>
<circle fill="none" stroke="#000000" stroke-miterlimit="10" cx="50.022" cy="30.751" r="0.25"/>
<circle fill="none" stroke="#000000" stroke-miterlimit="10" cx="55.522" cy="30.751" r="0.25"/>
<circle fill="none" stroke="#000000" stroke-miterlimit="10" cx="41.647" cy="36.252" r="0.25"/>
<circle fill="none" stroke="#000000" stroke-miterlimit="10" cx="47.147" cy="36.252" r="0.25"/>
<circle fill="none" stroke="#000000" stroke-miterlimit="10" cx="52.897" cy="36.252" r="0.25"/>
<circle fill="none" stroke="#000000" stroke-miterlimit="10" cx="58.397" cy="36.251" r="0.25"/>
<circle fill="none" stroke="#000000" stroke-miterlimit="10" cx="38.772" cy="52.753" r="0.25"/>
<circle fill="none" stroke="#000000" stroke-miterlimit="10" cx="44.272" cy="52.753" r="0.25"/>
<circle fill="none" stroke="#000000" stroke-miterlimit="10" cx="50.022" cy="52.753" r="0.25"/>
<circle fill="none" stroke="#000000" stroke-miterlimit="10" cx="55.522" cy="52.752" r="0.25"/>
<circle fill="none" stroke="#000000" stroke-miterlimit="10" cx="41.647" cy="58.253" r="0.25"/>
<circle fill="none" stroke="#000000" stroke-miterlimit="10" cx="47.147" cy="58.253" r="0.25"/>
<circle fill="none" stroke="#000000" stroke-miterlimit="10" cx="52.897" cy="58.253" r="0.25"/>
<circle fill="none" stroke="#000000" stroke-miterlimit="10" cx="58.397" cy="58.252" r="0.25"/>
<circle fill="none" stroke="#000000" stroke-miterlimit="10" cx="12.585" cy="34.001" r="4"/>
<g>
	<path fill="none" stroke="#000000" stroke-miterlimit="10" d="M67.71,41.001c0,2.2-1.8,4-4,4H4.96c-2.2,0-4-1.8-4-4v-14
		c0-2.2,1.8-4,4-4h58.75c2.2,0,4,1.8,4,4V41.001z"/>
</g>
</svg>
